.
..............................Site Info...........................

 -   http://www.scenetime.com  *_*    

Scenetime .Always on time . friendly online private torrent community ..

     We care to share . Join us on  http://www.scenetime.com 

    Be the first to get new release at  http://www.scenetime.com

        Seed back for speed


...................................NFO:.................................................[IMG]http://img607.imageshack.us/img607/5894/rubysparksdvdcover39.jpg[/IMG]


[color=blue][size=4][b]Ruby.Sparks.2012.DVDRip.XVID.AC3.HQ.Hive-CM8[/b][/size][/color]


[b]Thx Hive

CM8 Doing It Right The First Time :D


Source: DVDR Decoded
thx

Encode:
DVD had great quality, just did the usual
Enjoy

Video: 720x384 @bitrate 1700 2pass
Audio: English AC3 5.1 @448
Subs: Yes, English in srt /subs
Sample: Yes, included[/b]
 
http://www.imdb.com/title/tt1839492/


General
Complete name                  : Ruby.Sparks.2012.DVDRip.XVID.AC3.HQ.Hive-CM8.avi
Format                         : AVI
Format/Info                    : Audio Video Interleave
File size                      : 1.57 GiB
Duration                       : 1h 44mn
Overall bit rate               : 2 155 Kbps
Writing application            : Nandub v1.0rc2
Writing library                : Nandub build 1853/release

Video
ID                             : 0
Format                         : MPEG-4 Visual
Format profile                 : Advanced Simple@L5
Format settings, BVOP          : 2
Format settings, QPel          : Yes
Format settings, GMC           : No warppoints
Format settings, Matrix        : Default (H.263)
Muxing mode                    : Packed bitstream
Codec ID                       : XVID
Codec ID/Hint                  : XviD
Duration                       : 1h 44mn
Bit rate                       : 1 698 Kbps
Width                          : 720 pixels
Height                         : 384 pixels
Display aspect ratio           : 1.85:1
Frame rate                     : 23.976 fps
Color space                    : YUV
Chroma subsampling             : 4:2:0
Bit depth                      : 8 bits
Scan type                      : Progressive
Compression mode               : Lossy
Bits/(Pixel*Frame)             : 0.256
Stream size                    : 1.23 GiB (79%)
Writing library                : XviD 1.2.1 (UTC 2008-12-04)

Audio
ID                             : 1
Format                         : AC-3
Format/Info                    : Audio Coding 3
Mode extension                 : CM (complete main)
Format settings, Endianness    : Big
Codec ID                       : 2000
Duration                       : 1h 44mn
Bit rate mode                  : Constant
Bit rate                       : 448 Kbps
Channel(s)                     : 6 channels
Channel positions              : Front: L C R, Side: L R, LFE
Sampling rate                  : 48.0 KHz
Bit depth                      : 16 bits
Compression mode               : Lossy
Stream size                    : 334 MiB (21%)
Alignment                      : Split accross interleaves
Interleave, duration           : 42 ms (1.00 video frame)
Interleave, preload duration   : 500 ms


Plot:
A novelist struggling with writer's block finds romance in a
most unusual way: by creating a female character he thinks
will love him, then willing her into existence.


Cast:
Paul Dano         ...    Calvin Weir-Fields
Zoe Kazan         ...    Ruby Sparks
Annette Bening    ...    Gertrude
Antonio Banderas  ...    Mort


[img]http://img198.imageshack.us/img198/9296/rrrssrsrss.png[/img]
[img]http://img707.imageshack.us/img707/2806/rrrssrss.png[/img]
[img]http://img84.imageshack.us/img84/8206/rrrsss.png[/img]
[img]http://img641.imageshack.us/img641/9322/rrss.png[/img]
[img]http://img826.imageshack.us/img826/6461/22549303.png[/img]
[img]http://img259.imageshack.us/img259/6233/rrrssrsrsrss.png[/img]



Greetz

ViSiON,SPK,SceneLovers,PRESTiGE,SANTi,3LT0N,YanKeeS,COPYxRIGHT,THC,T0XiC
D2U,LKRG,ADTRG,Feel-Free,KoDeKinG,FLAWL3SS,WBZ,BHRG,26K,NOVA,MAGNET
Unevano,BigVik,Rapeseed,SAFC,TED,goldadvance,KaN1vE,Pinnz,Wayne
Mr Hive,jtr,Limey,ICONiK,SeeN and most P2P groups
Great Work Guys :D

LOOKING FOR ANYTHING YOU WANT TO LOOK AND SOUND BETTER

CM8@hushmail.com